<svg width="26" height="26" viewBox="0 0 26 26" fill="none" xmlns="http://www.w3.org/2000/svg">
<path d="M18.5819 13.4062L23.8631 18.6875L18.5819 23.9688L16.8594 22.2463L19.1994 19.9062H16.2987C14.7306 19.9062 13.5728 19.3131 12.6628 18.0334L11.5619 16.4937L13.0609 14.3975L14.6453 16.6197C15.1003 17.2575 15.5147 17.4688 16.2987 17.4688H19.1994L16.8594 15.1288L18.5819 13.4062ZM16.2987 8.53125H19.1994L16.8594 10.8713L18.5819 12.5938L23.8631 7.3125L18.5819 2.03125L16.8594 3.75375L19.1994 6.09375H16.2987C14.7306 6.09375 13.5728 6.68688 12.6628 7.96656L6.48375 16.6197C6.02875 17.2575 5.61437 17.4688 4.83031 17.4688H2.44156V19.9062H4.83031C6.39844 19.9062 7.55625 19.3131 8.46625 18.0334L14.6453 9.38031C15.1003 8.7425 15.5147 8.53125 16.2987 8.53125ZM6.47969 9.38031L8.06406 11.6025L9.56312 9.50625L8.46219 7.96656C7.54812 6.69094 6.39437 6.09375 4.82625 6.09375H2.4375V8.53125H4.82625C5.60625 8.53125 6.02469 8.74656 6.47969 9.38031Z" fill="#0A85D1"/>
</svg>
